<?xml version="1.0" standalone="no"?><!DOCTYPE svg PUBLIC "-//W3C//DTD SVG 1.1//EN" "http://www.w3.org/Graphics/SVG/1.1/DTD/svg11.dtd"><svg t="1734337781996" class="icon" viewBox="0 0 2240 1024" version="1.1" xmlns="http://www.w3.org/2000/svg" p-id="2681" width="560" height="256" xmlns:xlink="http://www.w3.org/1999/xlink"><path d="M2142.464 0A97.536 97.536 0 0 1 2240 97.536v828.928A97.536 97.536 0 0 1 2142.464 1024H97.536A97.536 97.536 0 0 1 0 926.464V97.536A97.536 97.536 0 0 1 97.536 0h2044.928z" fill="#BCBCBC" p-id="2682"></path><path d="M2142.464 16H97.536A81.536 81.536 0 0 0 16.16 92.16L16 97.536v828.928a81.536 81.536 0 0 0 76.16 81.376l5.376 0.16h2044.928a81.536 81.536 0 0 0 81.376-76.16l0.16-5.376V97.536A81.536 81.536 0 0 0 2147.84 16.16L2142.464 16z" fill="#FFFFFF" p-id="2683"></path><path d="M686.272 704v-76.608h-175.68l65.664-50.688c71.424-55.296 105.984-88.704 105.984-156.096 0-76.608-55.296-125.568-138.816-125.568-72 0-110.592 29.376-150.336 83.52l62.208 50.112c29.952-36.864 51.264-54.144 82.368-54.144 31.68 0 54.144 18.432 54.144 52.416 0 33.408-19.584 55.296-69.696 96.768l-134.208 110.016V704h298.368z m241.92 6.912c107.712 0 179.712-91.584 179.712-208.512 0-118.08-72-208.512-178.56-208.512-107.136 0-179.712 91.584-179.712 208.512 0 118.08 70.848 208.512 178.56 208.512z m1.152-80.064c-53.568 0-88.704-54.72-88.704-128.448 0-74.88 34.56-128.448 87.552-128.448 52.992 0 88.704 55.296 88.704 128.448 0 74.304-33.984 128.448-87.552 128.448zM1459.84 704v-76.608h-175.68l65.664-50.688c71.424-55.296 105.984-88.704 105.984-156.096 0-76.608-55.296-125.568-138.816-125.568-72 0-110.592 29.376-150.336 83.52l62.208 50.112c29.952-36.864 51.264-54.144 82.368-54.144 31.68 0 54.144 18.432 54.144 52.416 0 33.408-19.584 55.296-69.696 96.768l-134.208 110.016V704h298.368z m337.536 0v-86.976h54.144v-72h-54.144V297.92h-74.88l-221.184 256.32 14.4 62.784h196.992V704h84.672z m-84.672-158.976h-107.136l107.136-125.568v125.568z" fill="#2c2c2c" p-id="2684" data-spm-anchor-id="a313x.search_index.0.i5.65763a81xk3y0N" class="selected"></path></svg>